<svg xmlns="http://www.w3.org/2000/svg" viewBox="0 0 576.08 93.15"><defs><style>.cls-1{font-size:60.42px;fill:#fff;font-family:Bison-Bold, Bison;font-weight:700;}.cls-2{fill:#fdfefe;}.cls-3{fill:#ed1f6b;}</style></defs><g id="Layer_2" data-name="Layer 2"><g id="Layer_1-2" data-name="Layer 1"><text class="cls-1" transform="translate(112.5 66.67)">MERIDIAN REMOTE TEAMS</text><ellipse class="cls-2" cx="46.62" cy="46.58" rx="46.62" ry="46.58"/><path class="cls-3" d="M88.69,66.67A46.57,46.57,0,0,0,76.81,11.09C73.62,28.24,86,60,88.69,66.67Z"/><path class="cls-3" d="M60.4,91.09a46.54,46.54,0,0,0,19-11.35c-6.21-16.73-14.15-43-14.15-43C62.6,41.69,61,76.76,60.4,91.09Z"/><path class="cls-3" d="M25.9,44.72,24.67,87.64a46.29,46.29,0,0,0,22,5.51l1,0C40.12,74,25.9,44.72,25.9,44.72Z"/><path class="cls-3" d="M6.68,22.68l-.13.19a46.6,46.6,0,0,0,5.59,55C15.34,47,10.2,30.17,6.68,22.68Z"/><path class="cls-3" d="M50.69,66.4c-1.88-5.48,7.25-47.92,10.82-64a46.52,46.52,0,0,0-44.57,8.31C28.74,26.24,50.69,66.4,50.69,66.4Z"/></g></g></svg>